{
  "accessors": [
    {
      "bufferView": 2,
      "componentType": 5126,
      "count": 23656,
      "max": [
        1.0305839776992798,
        0.5738568902015686,
        0.9370297193527222
      ],
      "min": [
        -1.0573960542678833,
        -0.5721728801727295,
        -0.989444375038147
      ],
      "type": "VEC3"
    },
    {
      "bufferView": 2,
      "byteOffset": 283872,
      "componentType": 5126,
      "count": 23656,
      "max": [
        1.0,
        1.0,
        1.0
      ],
      "min": [
        -1.0,
        -1.0,
        -1.0
      ],
      "type": "VEC3"
    },
    {
      "bufferView": 1,
      "componentType": 5126,
      "count": 23656,
      "max": [
        1.0,
        1.0
      ],
      "min": [
        0.0,
        0.0
      ],
      "type": "VEC2"
    },
    {
      "bufferView": 0,
      "componentType": 5125,
      "count": 123018,
      "type": "SCALAR"
    },
    {
      "bufferView": 2,
      "byteOffset": 567744,
      "componentType": 5126,
      "count": 15951,
      "max": [
        5.572150230407715,
        26.030160903930664,
        2.8030080795288086
      ],
      "min": [
        -11.264360427856445,
        -28.843650817871094,
        -3.763370990753174
      ],
      "type": "VEC3"
    },
    {
      "bufferView": 2,
      "byteOffset": 759156,
      "componentType": 5126,
      "count": 15951,
      "max": [
        0.9999228119850159,
        0.999963104724884,
        0.9999998211860657
      ],
      "min": [
        -0.9999849796295166,
        -0.9999746084213257,
        -0.9999569058418274
      ],
      "type": "VEC3"
    },
    {
      "bufferView": 1,
      "byteOffset": 189248,
      "componentType": 5126,
      "count": 15951,
      "max": [
        0.6823698282241821,
        0.2435673028230667
      ],
      "min": [
        0.6317901015281677,
        0.0885312482714653
      ],
      "type": "VEC2"
    },
    {
      "bufferView": 0,
      "byteOffset": 492072,
      "componentType": 5125,
      "count": 85626,
      "type": "SCALAR"
    },
    {
      "bufferView": 2,
      "byteOffset": 950568,
      "componentType": 5126,
      "count": 56,
      "max": [
        1.0,
        0.9523590803146362,
        0.08998644351959229
      ],
      "min": [
        -1.0,
        -0.9523591995239258,
        -0.0897744819521904
      ],
      "type": "VEC3"
    },
    {
      "bufferView": 2,
      "byteOffset": 951240,
      "componentType": 5126,
      "count": 56,
      "max": [
        1.0,
        1.0,
        1.0
      ],
      "min": [
        -1.0,
        -1.0,
        -1.0
      ],
      "type": "VEC3"
    },
    {
      "bufferView": 1,
      "byteOffset": 316856,
      "componentType": 5126,
      "count": 56,
      "max": [
        1.0,
        1.0
      ],
      "min": [
        0.0,
        0.0
      ],
      "type": "VEC2"
    },
    {
      "bufferView": 0,
      "byteOffset": 834576,
      "componentType": 5125,
      "count": 84,
      "type": "SCALAR"
    }
  ],
  "asset": {
    "extras": {
      "author": "3Dee (https://sketchfab.com/mellydeeis)",
      "license": "CC-BY-4.0 (http://creativecommons.org/licenses/by/4.0/)",
      "source": "https://sketchfab.com/3d-models/a-water-tap-e70f6136b2334081a13470118f3b8378",
      "title": "A Water Tap"
    },
    "generator": "Sketchfab-12.67.0",
    "version": "2.0"
  },
  "bufferViews": [
    {
      "buffer": 0,
      "byteLength": 834912,
      "name": "floatBufferViews",
      "target": 34963
    },
    {
      "buffer": 0,
      "byteLength": 317304,
      "byteOffset": 834912,
      "byteStride": 8,
      "name": "floatBufferViews",
      "target": 34962
    },
    {
      "buffer": 0,
      "byteLength": 951912,
      "byteOffset": 1152216,
      "byteStride": 12,
      "name": "floatBufferViews",
      "target": 34962
    }
  ],
  "buffers": [
    {
      "byteLength": 2104128,
      "uri": "scene.bin"
    }
  ],
  "extensionsUsed": [
    "KHR_materials_clearcoat",
    "KHR_materials_transmission"
  ],
  "images": [
    {
      "uri": "textures/Wallpaper_baseColor.jpeg"
    },
    {
      "uri": "textures/Wallpaper_metallicRoughness.png"
    },
    {
      "uri": "textures/Material_baseColor.png"
    },
    {
      "uri": "textures/Material_metallicRoughness.png"
    },
    {
      "uri": "textures/Material_clearcoat.png"
    },
    {
      "uri": "textures/Material_clearcoat_roughness.png"
    },
    {
      "uri": "textures/Material_clearcoat_normal.png"
    }
  ],
  "materials": [
    {
      "doubleSided": true,
      "name": "Wallpaper",
      "pbrMetallicRoughness": {
        "baseColorFactor": [
          0.5723270440251572,
          0.5723270440251572,
          0.5723270440251572,
          1.0
        ],
        "baseColorTexture": {
          "index": 0
        },
        "metallicFactor": 0.09433962264150944,
        "metallicRoughnessTexture": {
          "index": 1
        },
        "roughnessFactor": 0.0880503144654088
      }
    },
    {
      "alphaMode": "BLEND",
      "doubleSided": true,
      "extensions": {
        "KHR_materials_clearcoat": {
          "clearcoatFactor": 0.1886792453,
          "clearcoatNormalTexture": {
            "index": 6
          },
          "clearcoatRoughnessFactor": 0.4591194969,
          "clearcoatRoughnessTexture": {
            "index": 5
          },
          "clearcoatTexture": {
            "index": 4
          }
        },
        "KHR_materials_transmission": {
          "transmissionFactor": 1.0,
          "transmissionTexture": {
            "index": 4
          }
        }
      },
      "name": "Material",
      "pbrMetallicRoughness": {
        "baseColorFactor": [
          0.7558495853,
          0.7572496932,
          0.8373390532,
          1.0
        ],
        "baseColorTexture": {
          "index": 2
        },
        "metallicRoughnessTexture": {
          "index": 3
        },
        "roughnessFactor": 0.0
      }
    },
    {
      "doubleSided": true,
      "name": "Water",
      "pbrMetallicRoughness": {
        "baseColorFactor": [
          0.7547169811320755,
          0.7547169811320755,
          0.7547169811320755,
          1.0
        ],
        "roughnessFactor": 0.0
      }
    }
  ],
  "meshes": [
    {
      "name": "Water_Material-material",
      "primitives": [
        {
          "attributes": {
            "NORMAL": 1,
            "POSITION": 0,
            "TEXCOORD_0": 2
          },
          "indices": 3,
          "material": 2,
          "mode": 4
        }
      ]
    },
    {
      "name": "Material-material",
      "primitives": [
        {
          "attributes": {
            "NORMAL": 5,
            "POSITION": 4,
            "TEXCOORD_0": 6
          },
          "indices": 7,
          "material": 1,
          "mode": 4
        }
      ]
    },
    {
      "name": "Wallpaper_Material-material",
      "primitives": [
        {
          "attributes": {
            "NORMAL": 9,
            "POSITION": 8,
            "TEXCOORD_0": 10
          },
          "indices": 11,
          "material": 0,
          "mode": 4
        }
      ]
    }
  ],
  "nodes": [
    {
      "children": [
        1
      ],
      "matrix": [
        0.27987661957740784,
        0.0,
        0.0,
        0.0,
        0.0,
        6.21450934218188e-17,
        -0.27987661957740784,
        0.0,
        0.0,
        0.27987661957740784,
        6.21450934218188e-17,
        0.0,
        0.0,
        0.0,
        0.0,
        1.0
      ],
      "name": "Sketchfab_model"
    },
    {
      "children": [
        2,
        4,
        6
      ],
      "name": "Collada visual scene group"
    },
    {
      "children": [
        3
      ],
      "matrix": [
        1.0,
        0.0,
        0.0,
        0.0,
        0.0,
        1.0,
        0.0,
        0.0,
        0.0,
        0.0,
        1.0,
        0.0,
        1.700281,
        -0.00084187,
        0.4122478,
        1.0
      ],
      "name": "Sphere.001"
    },
    {
      "mesh": 0,
      "name": "Water_Material-material"
    },
    {
      "children": [
        5
      ],
      "matrix": [
        0.9037528,
        0.0,
        0.0,
        0.0,
        0.0,
        0.9037528,
        0.0,
        0.0,
        0.0,
        0.0,
        0.9037528,
        0.0,
        0.908743,
        0.006099473,
        -2.334394,
        1.0
      ],
      "name": "Sphere.000"
    },
    {
      "mesh": 1,
      "name": "Material-material"
    },
    {
      "children": [
        7
      ],
      "matrix": [
        -1.49691e-06,
        34.24534,
        0.0,
        0.0,
        8.94822e-07,
        3.91139e-14,
        20.47115,
        0.0,
        4.994953,
        2.18336e-07,
        -2.18336e-07,
        0.0,
        3.327443,
        -0.7774486,
        -0.07644507,
        1.0
      ],
      "name": "Plane.001"
    },
    {
      "mesh": 2,
      "name": "Wallpaper_Material-material"
    }
  ],
  "samplers": [
    {
      "magFilter": 9729,
      "minFilter": 9987,
      "wrapS": 10497,
      "wrapT": 10497
    }
  ],
  "scene": 0,
  "scenes": [
    {
      "name": "Sketchfab_Scene",
      "nodes": [
        0
      ]
    }
  ],
  "textures": [
    {
      "sampler": 0,
      "source": 0
    },
    {
      "sampler": 0,
      "source": 1
    },
    {
      "sampler": 0,
      "source": 2
    },
    {
      "sampler": 0,
      "source": 3
    },
    {
      "sampler": 0,
      "source": 4
    },
    {
      "sampler": 0,
      "source": 5
    },
    {
      "sampler": 0,
      "source": 6
    }
  ]
}
